<svg width="35" height="35" viewBox="0 0 35 35" fill="none" xmlns="http://www.w3.org/2000/svg">
<rect width="35" height="35" fill="white"/>
<path d="M32.7222 12.389L18.8194 4.22756C18.5703 4.07848 18.2877 4 18 4C17.7123 4 17.4297 4.07848 17.1806 4.22756L3.27778 12.389C3.19443 12.4421 3.1253 12.516 3.07676 12.6041C3.02822 12.6921 3.00182 12.7914 3 12.8928V22.105C3.00182 22.2064 3.02822 22.3056 3.07676 22.3937C3.1253 22.4817 3.19443 22.5557 3.27778 22.6088L17.1806 30.7702C17.4292 30.9207 17.712 31 18 31C18.288 31 18.5708 30.9207 18.8194 30.7702L32.7222 22.6088C32.8056 22.5557 32.8747 22.4817 32.9232 22.3937C32.9718 22.3056 32.9982 22.2064 33 22.105V12.8928C32.9982 12.7914 32.9718 12.6921 32.9232 12.6041C32.8747 12.516 32.8056 12.4421 32.7222 12.389V12.389ZM31.8889 21.1118L25.7361 17.4989L31.8889 13.886V21.1118ZM31.3194 12.8928L24.6111 16.8367L18.5556 13.2814V5.39347L31.3194 12.8928ZM18 20.7231L12.5139 17.4989L18 14.2746L23.4861 17.4989L18 20.7231ZM17.4444 5.39347V13.2814L11.3889 16.8367L4.68056 12.8928L17.4444 5.39347ZM4.11111 13.886L10.2639 17.4989L4.11111 21.1118V13.886ZM4.68056 22.105L11.3889 18.161L17.4444 21.7163V29.6043L4.68056 22.105ZM18.5556 29.6043V21.7163L24.6111 18.161L31.3194 22.105L18.5556 29.6043Z" fill="black"/>
</svg>
