<svg width="35" height="35" viewBox="0 0 35 35" fill="none" xmlns="http://www.w3.org/2000/svg">
<rect width="35" height="35" fill="white"/>
<path d="M29.1946 8.61205C30.3991 10.0515 31 11.7308 31 13.65C31 20.6059 27.0266 22.645 23.2928 23.2448C23.7746 24.0844 23.895 25.0441 23.895 26.0037V30.9203C23.895 31.5201 23.5337 31.88 23.0519 31.88C22.9249 31.8817 22.7988 31.8581 22.6811 31.8105C22.5634 31.7629 22.4564 31.6923 22.3666 31.6028C22.2768 31.5134 22.2059 31.4069 22.1581 31.2897C22.1103 31.1724 22.0866 31.0469 22.0884 30.9203V26.0037C22.1518 25.501 22.0978 24.9905 21.9307 24.5119C21.7636 24.0334 21.4878 23.5998 21.1248 23.2448L21.727 21.6854C25.4608 21.2056 29.3151 20.0061 29.3151 13.5301C29.3151 11.9707 28.7129 10.5313 27.6288 9.33176L27.388 8.37347C27.846 7.22411 27.8881 5.95183 27.5071 4.77493C26.9062 4.89356 25.7017 5.13478 23.6555 6.5742L22.9315 6.69283C20.0868 5.97347 17.1067 5.97347 14.262 6.69283L13.538 6.5742C11.3727 5.25473 10.1682 4.89488 9.56467 4.89488C9.20333 6.09439 9.20333 7.41254 9.68379 8.49342L9.44422 9.45171C8.23977 10.6512 7.63754 12.2106 7.63754 13.65C7.63754 20.0061 11.2509 21.3256 15.2243 21.8054L15.7061 23.3647C14.9834 24.0844 14.6221 25.0441 14.7425 26.0037V31.0403C14.7443 31.1668 14.7206 31.2924 14.6728 31.4096C14.625 31.5268 14.5541 31.6333 14.4643 31.7228C14.3744 31.8123 14.2675 31.8829 14.1498 31.9305C14.0321 31.9781 13.906 32.0017 13.7789 31.9999C13.6519 32.0017 13.5258 31.9781 13.4081 31.9305C13.2904 31.8829 13.1835 31.8123 13.0936 31.7228C13.0038 31.6333 12.9329 31.5268 12.8851 31.4096C12.8373 31.2924 12.8136 31.1668 12.8154 31.0403V28.2827C8.842 29.1224 7.2762 27.0832 6.07175 25.5252C5.46952 24.8055 4.98774 24.2057 4.38551 24.0858C4.26639 23.9658 3.90373 23.486 4.02418 23.0062C4.14462 22.5264 4.6264 22.1665 5.10951 22.4064C6.31396 22.6463 7.03531 23.606 7.75666 24.4456C8.842 25.885 9.926 27.2032 13.1767 26.4848V26.005C13.0576 25.0454 13.2972 24.0858 13.7789 23.2461C10.1656 22.5264 5.9513 20.4872 5.9513 13.6513C5.9513 11.7321 6.55353 10.0528 7.75799 8.61337C7.39665 6.93537 7.5171 5.1361 8.11932 3.69669L8.72155 3.21688C8.96244 3.09693 10.6487 2.73708 14.139 4.89488C17.0248 4.17527 20.0443 4.17527 22.9301 4.89488C26.3039 2.61581 28.1106 2.97434 28.3515 3.09561L28.9537 3.57542C29.556 5.25473 29.6764 6.93405 29.1946 8.61205V8.61205Z" fill="black"/>
</svg>
