<svg width="50" height="50" viewBox="0 0 50 50" fill="none" xmlns="http://www.w3.org/2000/svg">
<path d="M39.15 20.8602L25.7373 13.2628C25.497 13.1241 25.2243 13.051 24.9468 13.051C24.6692 13.051 24.3966 13.1241 24.1562 13.2628L10.7436 20.8602C10.6632 20.9096 10.5965 20.9785 10.5496 21.0604C10.5028 21.1424 10.4773 21.2348 10.4756 21.3292V29.9047C10.4773 29.9991 10.5028 30.0915 10.5496 30.1734C10.5965 30.2554 10.6632 30.3243 10.7436 30.3737L24.1562 37.9711C24.3961 38.1112 24.669 38.185 24.9468 38.185C25.2246 38.185 25.4974 38.1112 25.7373 37.9711L39.15 30.3737C39.2304 30.3243 39.2971 30.2554 39.3439 30.1734C39.3908 30.0915 39.4162 29.9991 39.418 29.9047V21.3292C39.4162 21.2348 39.3908 21.1424 39.3439 21.0604C39.2971 20.9785 39.2304 20.9096 39.15 20.8602V20.8602ZM38.346 28.9802L32.4102 25.6169L38.346 22.2537V28.9802ZM37.7967 21.3292L31.3248 25.0006L25.4828 21.691V14.3482L37.7967 21.3292ZM24.9468 28.6184L19.6541 25.6169L24.9468 22.6155L30.2395 25.6169L24.9468 28.6184ZM24.4108 14.3482V21.691L18.5687 25.0006L12.0969 21.3292L24.4108 14.3482ZM11.5475 22.2537L17.4834 25.6169L11.5475 28.9802V22.2537ZM12.0969 29.9047L18.5687 26.2333L24.4108 29.5429V36.8857L12.0969 29.9047ZM25.4828 36.8857V29.5429L31.3248 26.2333L37.7967 29.9047L25.4828 36.8857Z" fill="#455377"/>
<path d="M25 0C11.2137 0 0 11.2137 0 25C0 38.7863 11.2137 50 25 50C38.7863 50 50 38.7863 50 25C50 11.2137 38.7863 0 25 0ZM25 48.3348C12.1336 48.3348 1.66521 37.8664 1.66521 25C1.66521 12.1336 12.1336 1.66521 25 1.66521C37.8664 1.66521 48.3348 12.1336 48.3348 25C48.3348 37.8664 37.8664 48.3348 25 48.3348Z" fill="#455377"/>
</svg>
