<svg width="50" height="50" viewBox="0 0 50 50" fill="none" xmlns="http://www.w3.org/2000/svg">
<path d="M30.4806 18.6884C29.4234 18.6884 28.6407 18.955 28.028 19.2918C27.9297 18.9426 27.607 18.6869 27.2266 18.7633H22.5739C22.114 18.6869 21.7413 19.0595 21.8832 19.5428V36.6939C21.7413 37.1305 22.114 37.5047 22.5739 37.4735H27.2266C27.6865 37.5047 28.0592 37.1305 28.0592 36.6705L28.0576 26.305C28.056 26.3004 28.0389 25.8045 28.3523 25.4631C28.6033 25.1918 29.0352 25.053 29.6324 25.053C30.6271 25.053 31.0699 25.46 31.2352 26.3705V36.6705C31.0715 37.1305 31.4442 37.5047 31.9041 37.4735H36.8078C37.2677 37.5047 37.6404 37.1305 37.4751 36.6705V26.0244C37.6388 20.6109 33.7829 18.6884 30.4806 18.6884V18.6884ZM35.9736 35.9143H32.7367V26.3705C32.7367 24.5291 31.5471 23.3878 29.6339 23.3878C28.5519 23.3878 27.7099 23.7059 27.1299 24.3327C26.3238 25.2058 26.3862 26.3128 26.5592 26.5592V35.9143H23.4065V20.3536H26.3939V20.8775C26.3927 21.0336 26.4356 21.1868 26.5175 21.3196C26.5995 21.4524 26.7173 21.5594 26.8573 21.6283C26.9974 21.6972 27.154 21.7252 27.3092 21.709C27.4644 21.6929 27.612 21.6333 27.7348 21.537L27.9531 21.3687C28.5846 20.8713 29.2379 20.3552 30.4821 20.3552C31.77 20.3552 35.9751 20.7653 35.9751 26.0259V35.9143H35.9736ZM17.2041 10.9143C15.4547 10.9143 14.0327 12.3363 14.0327 14.0857C14.0327 15.8351 15.4547 17.2571 17.2041 17.2571C18.9535 17.2571 20.3755 15.8351 20.3755 14.0857C20.3755 12.3363 18.9535 10.9143 17.2041 10.9143ZM17.2041 15.5919C16.3746 15.5919 15.6979 14.9152 15.6979 14.0857C15.6979 13.2562 16.3746 12.5795 17.2041 12.5795C18.0336 12.5795 18.7103 13.2562 18.7103 14.0857C18.7103 14.9152 18.0336 15.5919 17.2041 15.5919ZM19.4306 18.6869H14.803C14.343 18.6869 13.9703 19.0595 14.0857 19.5428V36.6939C13.9703 37.1305 14.343 37.5047 14.803 37.4735H19.4306C19.8906 37.5047 20.2632 37.1305 20.2632 36.6705V19.5195C20.2632 19.2986 20.1755 19.0869 20.0194 18.9307C19.8632 18.7746 19.6514 18.6869 19.4306 18.6869ZM18.7633 35.9143H15.6356V20.3536H18.7633V35.9143Z" fill="#455377"/>
<path d="M25 0C11.2137 0 0 11.2137 0 25C0 38.7863 11.2137 50 25 50C38.7863 50 50 38.7863 50 25C50 11.2137 38.7863 0 25 0ZM25 48.3348C12.1336 48.3348 1.66521 37.8664 1.66521 25C1.66521 12.1336 12.1336 1.66521 25 1.66521C37.8664 1.66521 48.3348 12.1336 48.3348 25C48.3348 37.8664 37.8664 48.3348 25 48.3348Z" fill="#455377"/>
</svg>
