<svg width="48" height="47" viewBox="0 0 48 47" fill="none" xmlns="http://www.w3.org/2000/svg">
<path d="M24.0002 1.60417C18.6803 1.60143 13.5333 3.49248 9.48057 6.93868C5.42788 10.3849 2.73427 15.1612 1.88206 20.4123C1.02985 25.6634 2.07469 31.0464 4.8295 35.5974C7.58432 40.1484 11.8692 43.5702 16.9168 45.25C18.0418 45.4583 18.4481 44.7708 18.4481 44.2083V40.4062C12.1981 41.7604 10.9064 37.4062 10.9064 37.4062C10.493 36.0286 9.59355 34.8478 8.37516 34.0833C6.34391 32.6979 8.53141 32.7187 8.53141 32.7187C9.24095 32.8181 9.91846 33.078 10.5124 33.4787C11.1062 33.8795 11.6008 34.4105 11.9585 35.0313C13.9585 38.4583 17.1668 37.4688 18.4793 36.8958C18.583 35.7579 19.0889 34.6942 19.9064 33.8958C14.9272 33.3333 9.69808 31.4167 9.69808 22.8333C9.66508 20.6066 10.4936 18.4533 12.0106 16.8229C11.3214 14.8922 11.3997 12.7705 12.2293 10.8958C12.2293 10.8958 14.1043 10.2917 18.3856 13.1875C22.0548 12.1875 25.9247 12.1875 29.5939 13.1875C33.8752 10.2917 35.7502 10.8958 35.7502 10.8958C36.5735 12.772 36.6517 14.8912 35.9689 16.8229C37.4831 18.4543 38.3079 20.6079 38.271 22.8333C38.271 31.4375 33.0627 33.3229 28.0522 33.8854C28.5899 34.4301 29.0039 35.0842 29.2664 35.8032C29.5288 36.5221 29.6334 37.2891 29.5731 38.0521V44.1979C29.5731 44.9375 29.9793 45.4896 31.1147 45.2396C36.1572 43.5532 40.4353 40.1279 43.1836 35.5763C45.932 31.0247 46.9713 25.6437 46.1156 20.396C45.26 15.1483 42.5653 10.3762 38.5135 6.93333C34.4617 3.49046 29.3172 1.60143 24.0002 1.60417" stroke="#455377" stroke-width="2" stroke-linecap="round" stroke-linejoin="round"/>
</svg>
