<svg width="80" height="80" viewBox="0 0 80 80" fill="none" xmlns="http://www.w3.org/2000/svg">
<path d="M23.776 17.576C25.184 15.9973 26.6773 14.568 28.256 13.288C29.8347 12.008 31.4987 10.92 33.248 10.024C35.04 9.08533 36.9173 8.38133 38.88 7.91199C40.8853 7.4 43.04 7.144 45.344 7.144C48.8853 7.144 52 7.74133 54.688 8.936C57.4187 10.088 59.68 11.752 61.472 13.928C63.3067 16.0613 64.6933 18.6427 65.632 21.672C66.5707 24.7013 67.04 28.0507 67.04 31.72V73H55.584V31.72C55.584 26.8133 54.4533 23.016 52.192 20.328C49.9733 17.5973 46.5813 16.232 42.016 16.232C38.6453 16.232 35.488 17.0427 32.544 18.664C29.6427 20.2853 26.9547 22.4827 24.48 25.256V73H13.024V8.168H19.872C21.4933 8.168 22.496 8.95733 22.88 10.536L23.776 17.576Z" fill="#F3D55D"/>
<circle cx="43.5" cy="33.5" r="3.5" fill="#F3D55D"/>
</svg>
